<svg width="469" height="361" viewBox="0 0 469 361" fill="none" xmlns="http://www.w3.org/2000/svg">
<g opacity="0.1">
<mask id="mask0_2_1210" style="mask-type:alpha" maskUnits="userSpaceOnUse" x="0" y="0" width="469" height="361">
<rect x="467.662" y="0.5" width="360" height="467.162" transform="rotate(90 467.662 0.5)" fill="url(#paint0_linear_2_1210)" stroke="#6246E5"/>
</mask>
<g mask="url(#mask0_2_1210)">
<path d="M230.673 453.92C163.068 453.92 108.242 397.647 108.242 328.202C108.242 258.758 163.068 202.484 230.673 202.484C298.277 202.484 353.104 258.758 353.104 328.202C353.104 397.647 298.277 453.92 230.673 453.92Z" stroke="#6246E5"/>
<path d="M243.613 458.902C167.968 458.902 106.624 395.937 106.624 318.237C106.624 240.538 167.968 177.573 243.613 177.573C319.257 177.573 380.602 240.538 380.602 318.237C380.602 395.937 319.257 458.902 243.613 458.902Z" stroke="#6246E5"/>
<path d="M254.127 463.885C171.336 463.885 104.198 394.971 104.198 309.934C104.198 224.897 171.336 155.983 254.127 155.983C336.918 155.983 404.055 224.897 404.055 309.934C404.055 394.971 336.918 463.885 254.127 463.885Z" stroke="#6246E5"/>
<path d="M269.493 467.206C180.449 467.206 108.242 393.088 108.242 301.63C108.242 210.173 180.449 136.054 269.493 136.054C358.538 136.054 430.745 210.173 430.745 301.63C430.745 393.088 358.538 467.206 269.493 467.206Z" stroke="#6246E5"/>
<path d="M284.455 470.527C189.381 470.527 112.286 391.39 112.286 293.741C112.286 196.092 189.381 116.955 284.455 116.955C379.53 116.955 456.625 196.092 456.625 293.741C456.625 391.39 379.529 470.527 284.455 470.527Z" stroke="#6246E5"/>
<path d="M301.439 474.68C196.985 474.68 112.286 387.735 112.286 280.456C112.286 173.176 196.985 86.2314 301.439 86.2314C405.893 86.2314 490.593 173.176 490.593 280.456C490.593 387.735 405.893 474.68 301.439 474.68Z" stroke="#6246E5"/>
</g>
</g>
<defs>
<linearGradient id="paint0_linear_2_1210" x1="724.198" y1="13.1348" x2="485.431" y2="477.05" gradientUnits="userSpaceOnUse">
<stop stop-color="#747DEF"/>
<stop offset="1" stop-color="#5E3BE1"/>
</linearGradient>
</defs>
</svg>
